<svg xmlns="http://www.w3.org/2000/svg" viewBox="0 0 438.023 438.023" fill="currentColor">
	<path d="M432.523 339.895h-13.838V33.266a5.5 5.5 0 0 0-5.5-5.5h-45.958a5.5 5.5 0 0 0-5.5 5.5v13.649H248.354V33.266a5.5 5.5 0 0 0-5.5-5.5h-45.958a5.5 5.5 0 0 0-5.5 5.5v13.649H78.021V33.266a5.5 5.5 0 0 0-5.5-5.5H26.564a5.5 5.5 0 0 0-5.5 5.5v306.628H5.5a5.5 5.5 0 0 0-5.5 5.5v59.362a5.5 5.5 0 0 0 5.5 5.5h48.817a5.5 5.5 0 0 0 5.5-5.5v-7.904h318.389v7.904a5.5 5.5 0 0 0 5.5 5.5h48.817a5.5 5.5 0 0 0 5.5-5.5v-59.362a5.5 5.5 0 0 0-5.5-5.499zm-48.817 0h-10.979V180.469h34.958v159.426h-23.979zm-305.685 0V210.15h97.617a49.221 49.221 0 0 0-5.306 22.266c0 27.318 22.225 49.542 49.542 49.542s49.543-22.225 49.543-49.542a49.21 49.21 0 0 0-5.307-22.266h97.617v129.745H78.021zm0-189.107h113.375v18.681H78.021v-18.681zm126.002 29.681v5.02a49.677 49.677 0 0 0-20.829 13.66H78.021v-18.681h126.002zm157.705 0v18.681H256.556a49.664 49.664 0 0 0-20.833-13.661v-5.019h126.005zm-113.374-11v-18.681h113.371v18.681H248.354zm-28.479 24.404c21.252 0 38.543 17.29 38.543 38.542s-17.291 38.542-38.543 38.542-38.542-17.29-38.542-38.542 17.289-38.542 38.542-38.542zm4.848-10.759a49.807 49.807 0 0 0-4.849-.24c-1.637 0-3.255.084-4.852.24v-2.645h9.7v2.645zM407.685 38.766v130.703h-34.958V38.766h34.958zm-45.957 19.149v81.873H248.354V57.915h113.374zM202.396 38.766h34.958v130.703h-34.958V38.766zm-11 19.149v81.873H78.021V57.915h113.375zM67.021 38.766v130.702H32.064V38.766h34.957zM32.064 180.469h34.958v159.426H32.064V180.469zm16.753 218.788H11v-48.362h37.817v48.362zm11-13.405v-34.958h318.389v34.958H59.817zm367.206 13.405h-37.817v-48.362h37.817v48.362z"/><path d="M219.875 259.374c14.865 0 26.958-12.093 26.958-26.958s-12.093-26.958-26.958-26.958c-14.864 0-26.958 12.093-26.958 26.958s12.093 26.958 26.958 26.958zm0-42.916c8.799 0 15.958 7.159 15.958 15.958s-7.159 15.958-15.958 15.958-15.958-7.159-15.958-15.958 7.159-15.958 15.958-15.958z"/>
</svg>